{"title":"Bitten.S01E03.Trespass.1080p.WEB-DL.DD5.1.H.264-NTb_2.mkv","uid":9567247,"size":1820463914,"categoryP":"video","categoryS":"hd___tv_shows","magnet":"?xt=urn:btih:526b1a097a7523308ca0c82b2b249fd8cf30090d&amp;dn=Bitten.S01E03.Trespass.1080p.WEB-DL.DD5.1.H.264-NTb_2.mkv&amp;tr=udp%3A%2F%2Ftracker.openbittorrent.com%3A80&amp;tr=udp%3A%2F%2Fopen.demonii.com%3A1337&amp;tr=udp%3A%2F%2Ftracker.coppersurfer.tk%3A6969&amp;tr=udp%3A%2F%2Fexodus.desync.com%3A6969","seeders":1,"leechers":2,"uploader":"frostyon420","files":-1,"time":1391542811,"description":"not my file and i dont in anyway take credit for it. i am only making this a torrent as none exists as of now..... thank ntb not me.\n\nsuperbay request\n\nComplete name : C:UsersPhr0stYDownloadsBitten.S01E03.Trespass.1080p.WEB-DL.DD5.1.H.264-NTb_2.mkv\nFormat : Matroska\nFormat version : Version 4 / Version 2\nFile size : 1.70 GiB\nDuration : 44mn 30s\nOverall bit rate : 5 453 Kbps\nEncoded date : UTC 2014-01-28 09:00:43\nWriting application : mkvmerge v6.6.0 ('The Edge Of The In Between') built on Dec 1 2013 17:55:00\nWriting library : libebml v1.3.0 + libmatroska v1.4.1\n\nVideo\nID : 1\nFormat : AVC\nFormat/Info : Advanced Video Codec\nFormat profile : &lt;a class=&quot;__cf_email__&quot; href=&quot;/cdn-cgi/l/email-protection&quot; data-cfemail=&quot;85cdece2edc5c9b1abb5&quot;&gt;[email&amp;#160;protected]&lt;/a&gt;&lt;script cf-hash='f9e31' type=&quot;text/javascript&quot;&gt;\n/* &lt;![CDATA[ */!function(){try{var t=&quot;currentScript&quot;in document?document.currentScript:function(){for(var t=document.getElementsByTagName(&quot;script&quot;),e=t.length;e--;)if(t[e].getAttribute(&quot;cf-hash&quot;))return t[e]}();if(t&amp;&amp;t.previousSibling){var e,r,n,i,c=t.previousSibling,a=c.getAttribute(&quot;data-cfemail&quot;);if(a){for(e=&quot;&quot;,r=parseInt(a.substr(0,2),16),n=2;a.length-n;n+=2)i=parseInt(a.substr(n,2),16)^r,e+=String.fromCharCode(i);e=document.createTextNode(e),c.parentNode.replaceChild(e,c)}}}catch(u){}}();/* ]]&gt; */&lt;/script&gt;\nFormat settings, CABAC : Yes\nFormat settings, ReFrames : 4 frames\nCodec ID : V_MPEG4/ISO/AVC\nDuration : 44mn 30s\nBit rate : 4 960 Kbps\nWidth : 1 920 pixels\nHeight : 1 080 pixels\nDisplay aspect ratio : 16:9\nFrame rate mode : Constant\nFrame rate : 23.976 fps\nColor space : YUV\nChroma subsampling : 4:2:0\nBit depth : 8 bits\nScan type : Progressive\nBits/(Pixel*Frame) : 0.100\nStream size : 1.54 GiB (91%)\nLanguage : English\nDefault : Yes\nForced : No\nColor primaries : BT.709\nTransfer characteristics : BT.709\nMatrix coefficients : BT.709\n\nAudio\nID : 2\nFormat : AC-3\nFormat/Info : Audio Coding 3\nMode extension : CM (complete main)\nFormat settings, Endianness : Big\nCodec ID : A_AC3\nDuration : 44mn 30s\nBit rate mode : Constant\nBit rate : 384 Kbps\nChannel count : 6 channels\nChannel positions : Front: L C R, Side: L R, LFE\nSampling rate : 48.0 KHz\nBit depth : 16 bits\nCompression mode : Lossy\nStream size : 122 MiB (7%)\nLanguage : English\nDefault : Yes\nForced : No\n\nText\nID : 3\nFormat : UTF-8\nCodec ID : S_TEXT/UTF8\nCodec ID/Info : UTF-8 Plain Text\nLanguage : English\nDefault : Yes\nForced : No","torrent":{"xt":"urn:btih:526b1a097a7523308ca0c82b2b249fd8cf30090d","amp;dn":"Bitten.S01E03.Trespass.1080p.WEB-DL.DD5.1.H.264-NTb_2.mkv","amp;tr":["udp%3A%2F%2Ftracker.openbittorrent.com%3A80","udp%3A%2F%2Fopen.demonii.com%3A1337","udp%3A%2F%2Ftracker.coppersurfer.tk%3A6969","udp%3A%2F%2Fexodus.desync.com%3A6969"],"infoHash":"526b1a097a7523308ca0c82b2b249fd8cf30090d","infoHashBuffer":{"type":"Buffer","data":[82,107,26,9,122,117,35,48,140,160,200,43,43,36,159,216,207,48,9,13]},"announce":[],"urlList":[]}}